<svg width="17" height="16" viewBox="0 0 17 16" fill="none" xmlns="http://www.w3.org/2000/svg">
<g id="fi-rr-document" clip-path="url(#clip0_231_26)">
<path id="Vector" d="M11.8334 9.33332C11.8334 9.51013 11.7632 9.6797 11.6382 9.80472C11.5131 9.92975 11.3436 9.99998 11.1668 9.99998H5.83344C5.65662 9.99998 5.48706 9.92975 5.36203 9.80472C5.23701 9.6797 5.16677 9.51013 5.16677 9.33332C5.16677 9.15651 5.23701 8.98694 5.36203 8.86191C5.48706 8.73689 5.65662 8.66665 5.83344 8.66665H11.1668C11.3436 8.66665 11.5131 8.73689 11.6382 8.86191C11.7632 8.98694 11.8334 9.15651 11.8334 9.33332ZM9.16677 11.3333H5.83344C5.65662 11.3333 5.48706 11.4036 5.36203 11.5286C5.23701 11.6536 5.16677 11.8232 5.16677 12C5.16677 12.1768 5.23701 12.3464 5.36203 12.4714C5.48706 12.5964 5.65662 12.6667 5.83344 12.6667H9.16677C9.34358 12.6667 9.51315 12.5964 9.63817 12.4714C9.7632 12.3464 9.83344 12.1768 9.83344 12C9.83344 11.8232 9.7632 11.6536 9.63817 11.5286C9.51315 11.4036 9.34358 11.3333 9.16677 11.3333ZM15.1668 6.98998V12.6667C15.1657 13.5504 14.8142 14.3976 14.1893 15.0225C13.5644 15.6474 12.7172 15.9989 11.8334 16H5.16677C4.28304 15.9989 3.43581 15.6474 2.81091 15.0225C2.18602 14.3976 1.83449 13.5504 1.83344 12.6667V3.33332C1.83449 2.44959 2.18602 1.60236 2.81091 0.977465C3.43581 0.352573 4.28304 0.00104342 5.16677 -1.51518e-05H8.17677C8.78985 -0.0015931 9.39716 0.118377 9.96358 0.352958C10.53 0.587539 11.0443 0.932077 11.4768 1.36665L13.7994 3.69065C14.2343 4.12281 14.579 4.63696 14.8137 5.2033C15.0484 5.76965 15.1684 6.37693 15.1668 6.98998ZM10.5341 2.30932C10.3243 2.10609 10.0887 1.93127 9.83344 1.78932V4.66665C9.83344 4.84346 9.90367 5.01303 10.0287 5.13806C10.1537 5.26308 10.3233 5.33332 10.5001 5.33332H13.3774C13.2354 5.07811 13.0603 4.84275 12.8568 4.63332L10.5341 2.30932ZM13.8334 6.98998C13.8334 6.87998 13.8121 6.77465 13.8021 6.66665H10.5001C9.96967 6.66665 9.46096 6.45594 9.08589 6.08087C8.71082 5.70579 8.5001 5.19708 8.5001 4.66665V1.36465C8.3921 1.35465 8.2861 1.33332 8.17677 1.33332H5.16677C4.63634 1.33332 4.12763 1.54403 3.75255 1.9191C3.37748 2.29418 3.16677 2.80289 3.16677 3.33332V12.6667C3.16677 13.1971 3.37748 13.7058 3.75255 14.0809C4.12763 14.4559 4.63634 14.6667 5.16677 14.6667H11.8334C12.3639 14.6667 12.8726 14.4559 13.2476 14.0809C13.6227 13.7058 13.8334 13.1971 13.8334 12.6667V6.98998Z" fill="white"/>
</g>
<defs>
<clipPath id="clip0_231_26">
<rect width="16" height="16" fill="white" transform="translate(0.5)"/>
</clipPath>
</defs>
</svg>
