<svg width="34" height="34" viewBox="0 0 34 34" fill="none" xmlns="http://www.w3.org/2000/svg">
<g id="fi-rr-arrow-up" clip-path="url(#clip0_26_416)">
<path id="Vector" d="M16.8221 8.63383C16.8229 8.89802 16.9282 9.15116 17.115 9.33797C17.3018 9.52477 17.5549 9.63007 17.8191 9.63085L22.9244 9.60257L8.48528 24.0417C8.29775 24.2292 8.19239 24.4836 8.19239 24.7488C8.19239 25.014 8.29775 25.2684 8.48528 25.4559C8.67282 25.6435 8.92717 25.7488 9.19239 25.7488C9.45761 25.7488 9.71196 25.6435 9.8995 25.4559L24.3316 11.0239L24.3316 16.1433C24.331 16.2753 24.3566 16.4061 24.4069 16.5282C24.4572 16.6503 24.5311 16.7612 24.6244 16.8545C24.7178 16.9479 24.8287 17.0218 24.9508 17.0721C25.0728 17.1223 25.2036 17.1479 25.3357 17.1474C25.5998 17.1466 25.853 17.0413 26.0398 16.8545C26.2266 16.6677 26.3319 16.4146 26.3327 16.1504L26.3397 10.6137C26.3393 9.81872 26.0232 9.05643 25.4611 8.49427C24.8989 7.93212 24.1366 7.61609 23.3416 7.6156L17.8191 7.63681C17.5549 7.6376 17.3018 7.74289 17.115 7.9297C16.9282 8.11651 16.8229 8.36965 16.8221 8.63383Z" fill="#374957"/>
</g>
<defs>
<clipPath id="clip0_26_416">
<rect width="24" height="24" fill="white" transform="translate(16.9706) rotate(45)"/>
</clipPath>
</defs>
</svg>
