<svg width="38" height="38" viewBox="0 0 38 38" fill="none" xmlns="http://www.w3.org/2000/svg">
<path d="M21.7313 15.675L23.5125 17.4562C23.75 17.6937 24.1063 17.8125 24.3438 17.8125C24.5813 17.8125 24.9375 17.6937 25.175 17.4562L26.9563 15.675C27.4313 15.2 27.4313 14.4875 26.9563 14.0125L25.175 12.2313C24.7 11.7563 23.9875 11.7563 23.5125 12.2313L21.7313 14.0125C21.2563 14.4875 21.2563 15.2 21.7313 15.675Z" fill="#F8FDFE"/>
<path d="M35.625 17.4562C35.3875 16.8625 34.7938 16.5062 34.2 16.625L30.1625 17.8125C30.6375 16.8625 30.9938 15.7937 30.9938 14.725C30.9938 12.9437 30.2813 11.2812 29.0938 10.0937C27.9063 8.90622 26.2438 8.19372 24.4625 8.19372C23.8688 8.19372 23.275 8.31247 22.6813 8.43122L24.9375 3.91872C25.175 3.32497 24.9375 2.61247 24.4625 2.37497C23.8688 2.13747 23.1563 2.37497 22.9188 2.84997L12.825 23.1562L3.20625 26.125C2.6125 26.3625 2.25625 26.9562 2.375 27.6687C2.6125 28.1437 3.0875 28.5 3.5625 28.5C3.68125 28.5 3.8 28.5 3.91875 28.5L11.0438 26.2437L7.24375 33.9625C7.00625 34.5562 7.24375 35.2687 7.71875 35.5062C7.95625 35.625 8.075 35.625 8.3125 35.625C8.7875 35.625 9.14375 35.3875 9.38125 34.9125L14.25 25.175L34.7938 19C35.3875 18.7625 35.7438 18.05 35.625 17.4562ZM27.3125 11.875C28.1438 12.7062 28.5 13.6562 28.5 14.8437C28.5 16.0312 28.025 16.9812 27.3125 17.8125C25.7688 19.3562 23.0375 19.3562 21.375 17.8125C20.5438 16.9812 20.1875 16.0312 20.1875 14.8437C20.1875 13.6562 20.6625 12.7062 21.375 11.875C22.0875 11.0437 23.1563 10.6875 24.3438 10.6875C25.5313 10.6875 26.4813 11.1625 27.3125 11.875ZM18.2875 17.2187C18.6438 18.05 19.1188 18.8812 19.7125 19.475C20.1875 19.95 20.7813 20.3062 21.2563 20.6625L15.675 22.4437L18.2875 17.2187Z" fill="#F8FDFE"/>
</svg>
