<svg width="101" height="26" viewBox="0 0 101 26" fill="none" xmlns="http://www.w3.org/2000/svg">
<path d="M6.974 21.22C5.72733 21.22 4.642 20.9633 3.718 20.45C2.80867 19.922 2.10467 19.2107 1.606 18.316C1.122 17.4213 0.88 16.4093 0.88 15.28C0.88 13.96 1.144 12.838 1.672 11.914C2.21467 10.9753 2.91867 10.2567 3.784 9.758C4.64933 9.25933 5.566 9.01 6.534 9.01C7.282 9.01 7.986 9.164 8.646 9.472C9.32067 9.78 9.91467 10.2053 10.428 10.748C10.9413 11.276 11.3447 11.892 11.638 12.596C11.946 13.3 12.1 14.048 12.1 14.84C12.0853 15.192 11.946 15.478 11.682 15.698C11.418 15.918 11.11 16.028 10.758 16.028H2.354L1.694 13.828H9.768L9.284 14.268V13.674C9.25467 13.2487 9.10067 12.8673 8.822 12.53C8.558 12.1927 8.22067 11.9287 7.81 11.738C7.414 11.5327 6.98867 11.43 6.534 11.43C6.094 11.43 5.68333 11.4887 5.302 11.606C4.92067 11.7233 4.59067 11.9213 4.312 12.2C4.03333 12.4787 3.81333 12.8527 3.652 13.322C3.49067 13.7913 3.41 14.3853 3.41 15.104C3.41 15.896 3.57133 16.5707 3.894 17.128C4.23133 17.6707 4.65667 18.0887 5.17 18.382C5.698 18.6607 6.25533 18.8 6.842 18.8C7.38467 18.8 7.81733 18.756 8.14 18.668C8.46267 18.58 8.71933 18.4773 8.91 18.36C9.11533 18.228 9.29867 18.118 9.46 18.03C9.724 17.898 9.97333 17.832 10.208 17.832C10.5307 17.832 10.7947 17.942 11 18.162C11.22 18.382 11.33 18.6387 11.33 18.932C11.33 19.328 11.1247 19.6873 10.714 20.01C10.3327 20.3327 9.79733 20.6187 9.108 20.868C8.41867 21.1027 7.70733 21.22 6.974 21.22ZM15.8586 15.566C15.4772 15.566 15.1546 15.4413 14.8906 15.192C14.6412 14.9427 14.5166 14.6273 14.5166 14.246C14.5166 13.8647 14.6412 13.5567 14.8906 13.322C15.1546 13.0727 15.4772 12.948 15.8586 12.948H19.6866C20.0679 12.948 20.3832 13.08 20.6326 13.344C20.8966 13.5933 21.0286 13.9087 21.0286 14.29C21.0286 14.6567 20.8966 14.9647 20.6326 15.214C20.3832 15.4487 20.0679 15.566 19.6866 15.566H15.8586ZM29.4432 21C29.0326 21 28.6952 20.8753 28.4312 20.626C28.1672 20.362 28.0352 20.0393 28.0352 19.658V6.898H30.8952V19.658C30.8952 20.0393 30.7559 20.362 30.4772 20.626C30.2132 20.8753 29.8686 21 29.4432 21ZM24.5812 8.13C24.1999 8.13 23.8772 8.01267 23.6132 7.778C23.3639 7.54333 23.2392 7.23533 23.2392 6.854C23.2392 6.47267 23.3639 6.172 23.6132 5.952C23.8772 5.71733 24.1999 5.6 24.5812 5.6H34.3492C34.7306 5.6 35.0459 5.71733 35.2952 5.952C35.5592 6.18667 35.6912 6.49467 35.6912 6.876C35.6912 7.25733 35.5592 7.56533 35.2952 7.8C35.0459 8.02 34.7306 8.13 34.3492 8.13H24.5812ZM44.3121 9.23C44.6935 9.23 45.0088 9.362 45.2581 9.626C45.5075 9.87533 45.6321 10.1907 45.6321 10.572V16.16C45.6321 17.7147 45.1995 18.9467 44.3341 19.856C43.4688 20.7653 42.2221 21.22 40.5941 21.22C38.9661 21.22 37.7195 20.7653 36.8541 19.856C36.0035 18.9467 35.5781 17.7147 35.5781 16.16V10.572C35.5781 10.1907 35.7028 9.87533 35.9521 9.626C36.2015 9.362 36.5168 9.23 36.8981 9.23C37.2795 9.23 37.5948 9.362 37.8441 9.626C38.0935 9.87533 38.2181 10.1907 38.2181 10.572V16.16C38.2181 17.0547 38.4161 17.722 38.8121 18.162C39.2081 18.5873 39.8021 18.8 40.5941 18.8C41.4008 18.8 42.0021 18.5873 42.3981 18.162C42.7941 17.722 42.9921 17.0547 42.9921 16.16V10.572C42.9921 10.1907 43.1168 9.87533 43.3661 9.626C43.6155 9.362 43.9308 9.23 44.3121 9.23ZM49.0622 9.45H54.2762C54.6282 9.45 54.9216 9.56733 55.1562 9.802C55.3909 10.0367 55.5082 10.33 55.5082 10.682C55.5082 11.0193 55.3909 11.3053 55.1562 11.54C54.9216 11.76 54.6282 11.87 54.2762 11.87H49.0622C48.7102 11.87 48.4169 11.7527 48.1822 11.518C47.9476 11.2833 47.8302 10.99 47.8302 10.638C47.8302 10.3007 47.9476 10.022 48.1822 9.802C48.4169 9.56733 48.7102 9.45 49.0622 9.45ZM51.4162 6.7C51.7976 6.7 52.1056 6.832 52.3402 7.096C52.5896 7.34533 52.7142 7.66067 52.7142 8.042V17.832C52.7142 18.0373 52.7509 18.206 52.8242 18.338C52.9122 18.47 53.0222 18.5653 53.1542 18.624C53.3009 18.6827 53.4549 18.712 53.6162 18.712C53.7922 18.712 53.9536 18.6827 54.1002 18.624C54.2469 18.5507 54.4156 18.514 54.6062 18.514C54.8116 18.514 54.9949 18.6093 55.1562 18.8C55.3322 18.9907 55.4202 19.2547 55.4202 19.592C55.4202 20.0027 55.1929 20.34 54.7382 20.604C54.2982 20.868 53.8216 21 53.3082 21C53.0002 21 52.6556 20.978 52.2742 20.934C51.9076 20.8753 51.5556 20.7507 51.2182 20.56C50.8956 20.3547 50.6242 20.0467 50.4042 19.636C50.1842 19.2253 50.0742 18.6607 50.0742 17.942V8.042C50.0742 7.66067 50.1989 7.34533 50.4482 7.096C50.7122 6.832 51.0349 6.7 51.4162 6.7ZM69.6828 15.126C69.6828 16.3287 69.4114 17.392 68.8688 18.316C68.3408 19.2253 67.6221 19.9367 66.7128 20.45C65.8181 20.9633 64.8134 21.22 63.6988 21.22C62.5841 21.22 61.5721 20.9633 60.6628 20.45C59.7681 19.9367 59.0494 19.2253 58.5068 18.316C57.9788 17.392 57.7148 16.3287 57.7148 15.126C57.7148 13.9233 57.9788 12.8673 58.5068 11.958C59.0494 11.034 59.7681 10.3153 60.6628 9.802C61.5721 9.274 62.5841 9.01 63.6988 9.01C64.8134 9.01 65.8181 9.274 66.7128 9.802C67.6221 10.3153 68.3408 11.034 68.8688 11.958C69.4114 12.8673 69.6828 13.9233 69.6828 15.126ZM67.0428 15.126C67.0428 14.378 66.8888 13.7327 66.5808 13.19C66.2874 12.6327 65.8841 12.2 65.3708 11.892C64.8721 11.584 64.3148 11.43 63.6988 11.43C63.0828 11.43 62.5181 11.584 62.0048 11.892C61.5061 12.2 61.1028 12.6327 60.7948 13.19C60.5014 13.7327 60.3548 14.378 60.3548 15.126C60.3548 15.8593 60.5014 16.5047 60.7948 17.062C61.1028 17.6047 61.5061 18.03 62.0048 18.338C62.5181 18.646 63.0828 18.8 63.6988 18.8C64.3148 18.8 64.8721 18.646 65.3708 18.338C65.8841 18.03 66.2874 17.6047 66.5808 17.062C66.8888 16.5047 67.0428 15.8593 67.0428 15.126ZM73.7533 21C73.3719 21 73.0566 20.8753 72.8073 20.626C72.5579 20.362 72.4333 20.0393 72.4333 19.658V10.572C72.4333 10.1907 72.5579 9.87533 72.8073 9.626C73.0566 9.362 73.3719 9.23 73.7533 9.23C74.1346 9.23 74.4499 9.362 74.6993 9.626C74.9486 9.87533 75.0733 10.1907 75.0733 10.572V12.64L74.9193 11.166C75.0806 10.814 75.2859 10.506 75.5353 10.242C75.7993 9.96333 76.0926 9.736 76.4153 9.56C76.7379 9.36933 77.0826 9.23 77.4493 9.142C77.8159 9.054 78.1826 9.01 78.5493 9.01C78.9893 9.01 79.3559 9.13467 79.6493 9.384C79.9573 9.63333 80.1113 9.92667 80.1113 10.264C80.1113 10.748 79.9866 11.1 79.7373 11.32C79.4879 11.5253 79.2166 11.628 78.9233 11.628C78.6446 11.628 78.3879 11.5767 78.1533 11.474C77.9333 11.3713 77.6766 11.32 77.3833 11.32C77.1193 11.32 76.8479 11.386 76.5693 11.518C76.3053 11.6353 76.0559 11.826 75.8213 12.09C75.6013 12.354 75.4179 12.684 75.2713 13.08C75.1393 13.4613 75.0733 13.916 75.0733 14.444V19.658C75.0733 20.0393 74.9486 20.362 74.6993 20.626C74.4499 20.8753 74.1346 21 73.7533 21ZM84.8983 19.658C84.8983 20.0393 84.7737 20.362 84.5243 20.626C84.275 20.8753 83.9597 21 83.5783 21C83.197 21 82.8817 20.8753 82.6323 20.626C82.383 20.362 82.2583 20.0393 82.2583 19.658V10.572C82.2583 10.1907 82.383 9.87533 82.6323 9.626C82.8817 9.362 83.197 9.23 83.5783 9.23C83.9597 9.23 84.275 9.362 84.5243 9.626C84.7737 9.87533 84.8983 10.1907 84.8983 10.572V19.658ZM83.5563 7.8C83.0577 7.8 82.7057 7.71933 82.5003 7.558C82.295 7.39667 82.1923 7.11067 82.1923 6.7V6.282C82.1923 5.85667 82.3023 5.57067 82.5223 5.424C82.757 5.26267 83.109 5.182 83.5783 5.182C84.0917 5.182 84.451 5.26267 84.6563 5.424C84.8617 5.58533 84.9643 5.87133 84.9643 6.282V6.7C84.9643 7.12533 84.8543 7.41867 84.6343 7.58C84.4143 7.72667 84.055 7.8 83.5563 7.8ZM97.6876 9.01C98.0689 9.01 98.3842 9.13467 98.6336 9.384C98.8829 9.63333 99.0076 9.956 99.0076 10.352V19.658C99.0076 20.0393 98.8829 20.362 98.6336 20.626C98.3842 20.8753 98.0689 21 97.6876 21C97.3062 21 96.9909 20.8753 96.7416 20.626C96.4922 20.362 96.3676 20.0393 96.3676 19.658V18.58L96.8516 18.778C96.8516 18.9687 96.7489 19.2033 96.5436 19.482C96.3382 19.746 96.0596 20.01 95.7076 20.274C95.3556 20.538 94.9376 20.7653 94.4536 20.956C93.9842 21.132 93.4709 21.22 92.9136 21.22C91.9016 21.22 90.9849 20.9633 90.1636 20.45C89.3422 19.922 88.6896 19.2033 88.2056 18.294C87.7362 17.37 87.5016 16.314 87.5016 15.126C87.5016 13.9233 87.7362 12.8673 88.2056 11.958C88.6896 11.034 89.3349 10.3153 90.1416 9.802C90.9482 9.274 91.8429 9.01 92.8256 9.01C93.4562 9.01 94.0356 9.10533 94.5636 9.296C95.0916 9.48667 95.5462 9.72867 95.9276 10.022C96.3236 10.3153 96.6242 10.616 96.8296 10.924C97.0496 11.2173 97.1596 11.4667 97.1596 11.672L96.3676 11.958V10.352C96.3676 9.97067 96.4922 9.65533 96.7416 9.406C96.9909 9.142 97.3062 9.01 97.6876 9.01ZM93.2436 18.8C93.8889 18.8 94.4536 18.6387 94.9376 18.316C95.4216 17.9933 95.7956 17.5533 96.0596 16.996C96.3382 16.4387 96.4776 15.8153 96.4776 15.126C96.4776 14.422 96.3382 13.7913 96.0596 13.234C95.7956 12.6767 95.4216 12.2367 94.9376 11.914C94.4536 11.5913 93.8889 11.43 93.2436 11.43C92.6129 11.43 92.0556 11.5913 91.5716 11.914C91.0876 12.2367 90.7062 12.6767 90.4276 13.234C90.1636 13.7913 90.0316 14.422 90.0316 15.126C90.0316 15.8153 90.1636 16.4387 90.4276 16.996C90.7062 17.5533 91.0876 17.9933 91.5716 18.316C92.0556 18.6387 92.6129 18.8 93.2436 18.8Z" fill="black"/>
</svg>
