<svg width="47" height="20" viewBox="0 0 47 20" fill="none" xmlns="http://www.w3.org/2000/svg">
<g id="logo-prjctr">
<path id="Vector" d="M0 10.608H2.94076C4.31209 10.608 5.45952 10.6994 6.25142 11.637C6.75288 12.2364 6.83235 12.9129 6.83235 13.3952C6.83235 14.4899 6.37133 15.4146 5.61846 15.8956C4.91903 16.338 3.95663 16.338 3.45516 16.338H2.07082V19.9972H0V10.608ZM2.0188 14.8409H2.83671C3.49568 14.8409 4.72251 14.8409 4.72251 13.4081C4.72251 12.1322 3.62717 12.1322 3.04767 12.1322H2.0188V14.8409Z" fill="#007AFF"/>
<path id="Vector_2" d="M7.72974 10.5823H11.3829C12.438 10.5695 13.5058 10.5695 14.2719 11.2203C14.8657 11.7283 15.1026 12.419 15.1026 13.0313C15.1026 14.7895 13.5725 15.2062 13.1115 15.3361C14.549 15.4659 14.6546 16.2737 14.8248 17.4982C14.9698 18.6057 15.0488 19.0609 15.1156 19.3221C15.2211 19.7388 15.3008 19.843 15.4057 20H13.1503C13.0577 19.4791 12.7676 17.0958 12.6355 16.7304C12.451 16.1966 11.9493 16.1966 11.6069 16.1966H9.81356V20H7.72974V10.5823ZM9.74703 14.6982H11.3959C11.6329 14.6982 12.1083 14.6982 12.438 14.437C12.5824 14.3328 12.9651 14.0075 12.9651 13.3424C12.9651 12.7044 12.6491 12.4047 12.4639 12.2877C12.1473 12.0665 11.7644 12.0665 11.1184 12.0665H9.74703V14.6982Z" fill="#007AFF"/>
<path id="Vector_3" d="M32.724 1.56674H29.8884V0.00402832H37.6167V1.56674H34.7805V9.42025H32.7226V1.56674H32.724Z" fill="#007AFF"/>
<path id="Vector_4" d="M38.553 0.00296939H42.2064C43.2612 -0.00987433 44.3289 -0.00987639 45.095 0.640894C45.6888 1.14896 45.9258 1.83969 45.9258 2.45193C45.9258 4.21016 44.3957 4.62689 43.9347 4.75675C45.3722 4.88662 45.4777 5.69438 45.6487 6.91884C45.793 8.02629 45.8727 8.48159 45.9387 8.74274C46.0443 9.15949 46.124 9.26361 46.2295 9.42064H43.9735C43.8809 8.8997 43.5908 6.51639 43.4593 6.15106C43.2741 5.61731 42.7729 5.61732 42.4304 5.61732H40.6367V9.42064H38.553V0.00296939ZM40.5707 4.11882H42.2193C42.4563 4.11882 42.9316 4.11882 43.2612 3.85766C43.4056 3.75348 43.7889 3.42809 43.7889 2.76305C43.7889 2.12512 43.4723 1.82542 43.2871 1.70839C42.9711 1.48719 42.5877 1.48719 41.9422 1.48719H40.5707V4.11882Z" fill="#007AFF"/>
<path id="Vector_5" d="M19.5752 14.0318C19.5752 14.4728 19.5752 14.9936 19.5043 15.4132C19.4451 15.6929 19.345 16.3537 18.6531 17.0858C17.9436 17.8365 17.5793 17.4397 17.5793 16.6049V16.2638L15.7944 18.002V18.4416C15.7944 18.7912 15.7876 19.3949 16.2412 19.6803C17.3191 20.3539 19.7733 16.9917 20.1022 16.4579C21.1707 14.7167 21.4179 13.4437 21.4179 12.1565V6.75195L19.5752 8.63721V14.0318Z" fill="#007AFF"/>
<path id="Vector_6" d="M27.39 6.1372C27.3553 7.28605 26.6273 8.50628 25.8639 9.28687C24.0907 11.0993 24.0907 8.72317 24.0907 8.22511C24.0907 6.49824 24.6546 4.53025 26.0042 3.14878C27.1864 1.94 27.373 2.81626 27.373 3.22013C27.373 3.53981 27.373 3.55694 27.373 3.55694L29.2313 1.70309L29.2327 1.3192C29.2327 -0.350555 27.9293 -0.130776 26.0751 1.76589C23.6923 4.20343 22.1895 7.50151 22.1895 10.1574C22.1895 12.2325 23.1401 13.3928 26.0635 10.4043C26.8377 9.6123 27.789 8.46488 28.5401 6.93209C29.2211 5.54066 29.2688 4.71578 29.3035 4.1806L27.39 6.1372Z" fill="#007AFF"/>
</g>
</svg>
